<?xml version="1.0" standalone="no"?>
<!DOCTYPE svg PUBLIC "-//W3C//DTD SVG 20010904//EN"
 "http://www.w3.org/TR/2001/REC-SVG-20010904/DTD/svg10.dtd">
<svg version="1.0" xmlns="http://www.w3.org/2000/svg"
 width="512.000000pt" height="662.000000pt" viewBox="0 0 512.000000 662.000000"
 preserveAspectRatio="xMidYMid meet">

<g transform="translate(0.000000,662.000000) scale(0.100000,-0.100000)"
fill="#000000" stroke="none">
<path d="M2605 6041 l-420 -6 -80 -29 c-44 -16 -91 -37 -105 -47 -14 -10 -50
-29 -80 -43 -57 -27 -85 -45 -173 -108 -28 -21 -56 -38 -61 -38 -16 0 -114
-69 -134 -95 -11 -14 -25 -25 -32 -25 -28 0 -166 -144 -221 -230 -9 -14 -43
-54 -75 -90 -55 -61 -100 -139 -168 -293 -56 -126 -74 -175 -90 -252 -10 -44
-24 -107 -31 -140 -55 -238 -68 -355 -68 -610 -1 -320 40 -554 164 -950 22
-69 105 -373 125 -455 57 -238 56 -230 55 -510 -2 -316 -15 -524 -35 -554 -7
-12 -26 -60 -41 -107 -23 -72 -26 -94 -20 -154 15 -164 38 -213 138 -294 74
-61 161 -105 242 -122 33 -7 74 -22 90 -33 29 -20 43 -21 505 -25 793 -6 714
-8 805 23 44 15 93 33 109 39 38 14 194 172 212 214 20 45 17 146 -5 224 -56
197 -89 479 -72 614 16 125 50 257 77 297 25 35 27 36 62 26 22 -6 100 -8 187
-6 128 4 156 8 190 26 22 12 55 28 72 37 37 17 77 87 88 151 3 21 11 48 16 59
5 11 22 56 38 100 33 90 58 142 72 151 5 3 21 29 35 57 15 29 34 61 44 72 33
36 134 305 156 415 9 41 28 116 44 165 16 50 34 122 40 160 11 75 13 86 61
305 29 132 31 154 25 255 -9 148 -21 253 -41 355 -10 47 -17 96 -17 110 2 41
-36 227 -69 340 -49 170 -77 244 -127 342 -63 121 -97 172 -137 203 -18 13
-54 55 -78 91 -48 71 -86 104 -240 209 -77 53 -121 75 -211 106 -133 44 -233
66 -331 71 -38 3 -259 2 -490 -1z m595 -120 c80 -18 170 -37 200 -41 75 -10
110 -26 220 -103 112 -78 163 -126 201 -187 15 -25 44 -57 63 -72 109 -86 250
-429 309 -755 6 -32 6 -32 -21 -22 -111 43 -373 -116 -338 -206 9 -25 44 -17
60 13 35 66 152 131 246 135 55 2 60 0 60 -19 0 -12 4 -34 9 -50 15 -49 39
-203 52 -337 14 -138 14 -133 -48 -412 -7 -33 -20 -103 -28 -155 -9 -52 -29
-133 -45 -180 -15 -47 -34 -116 -41 -155 -13 -74 -48 -181 -101 -310 -35 -85
-67 -137 -104 -170 -12 -11 -30 -42 -40 -70 -10 -27 -23 -59 -30 -70 -6 -11
-24 -56 -39 -100 -16 -44 -32 -84 -37 -90 -4 -5 -8 -18 -8 -30 0 -44 -23 -100
-53 -127 -50 -48 -91 -59 -227 -65 -120 -5 -129 -4 -225 27 -55 18 -134 43
-175 56 -41 12 -90 29 -108 36 -40 15 -67 2 -67 -33 0 -30 50 -56 181 -95 l92
-28 -21 -28 c-25 -34 -63 -184 -78 -308 -17 -140 1 -367 42 -540 17 -74 36
-155 42 -180 18 -79 5 -110 -81 -199 -69 -71 -83 -81 -137 -95 -33 -9 -84 -26
-113 -37 -50 -20 -63 -21 -190 -13 -76 5 -324 9 -552 9 -407 0 -416 0 -452 22
-20 11 -62 27 -95 33 -80 17 -152 53 -222 111 -67 56 -85 93 -100 203 -9 61
-7 77 16 149 14 45 32 91 39 103 22 33 36 262 36 589 1 264 -1 297 -21 372
-11 45 -21 94 -21 107 0 14 -11 60 -25 103 -13 43 -40 139 -60 213 -19 74 -60
218 -90 320 -93 315 -129 536 -128 798 1 180 14 326 39 447 64 301 83 371 130
477 98 218 128 273 187 332 26 27 63 71 82 100 46 69 147 176 166 176 8 0 31
16 50 36 18 20 43 40 54 45 11 5 39 22 61 37 23 15 61 40 85 56 127 84 146 96
155 96 6 0 30 13 55 29 25 15 70 36 100 46 30 10 59 21 64 25 20 16 76 18 475
16 l405 -3 145 -32z"/>
<path d="M3215 4793 c-64 -17 -295 -160 -314 -196 -27 -51 16 -79 55 -36 23
26 93 71 198 128 101 55 172 65 217 32 38 -28 63 -24 67 10 5 43 -48 69 -134
68 -38 -1 -78 -4 -89 -6z"/>
<path d="M3172 4548 c-29 -29 1 -88 45 -88 41 0 69 60 41 88 -7 7 -26 12 -43
12 -17 0 -36 -5 -43 -12z"/>
<path d="M4047 4492 c-24 -26 -21 -49 8 -68 41 -27 60 -15 60 36 0 41 -2 45
-26 48 -15 2 -32 -5 -42 -16z"/>
<path d="M3814 4385 c-8 -19 -2 -63 25 -195 12 -58 32 -166 46 -240 13 -74 34
-168 47 -207 17 -56 20 -79 12 -100 l-10 -28 -179 0 -180 0 0 -29 0 -28 180
-5 c99 -2 190 -1 202 2 56 14 68 117 28 242 -13 43 -38 158 -54 254 -25 148
-52 286 -67 337 -5 17 -43 15 -50 -3z"/>
<path d="M3810 3247 c-16 -7 -87 -12 -200 -12 l-175 0 0 -25 c0 -25 2 -25 85
-28 47 -1 95 -7 107 -13 34 -18 171 -6 213 18 65 37 37 92 -30 60z"/>
</g>
</svg>
